HIERARCHY
ROOT Hips
{
 OFFSET 0.000000 0.000000 0.000000
 CHANNELS 6 Xposition Yposition Zposition Yrotation Xrotation Zrotation
 JOINT Chest
 {
  OFFSET 0.000000 9.581000 -0.001100
  CHANNELS 3 Yrotation Xrotation Zrotation
  JOINT Chest2
  {
   OFFSET 0.000000 9.561100 0.002200
   CHANNELS 3 Yrotation Xrotation Zrotation
   JOINT Chest3
   {
    OFFSET 0.000000 9.521100 0.000000
    CHANNELS 3 Yrotation Xrotation Zrotation
    JOINT Chest4
    {
     OFFSET 0.000000 9.511400 0.000000
     CHANNELS 3 Yrotation Xrotation Zrotation
     JOINT Neck
     {
      OFFSET 0.000000 14.375100 0.000000
      CHANNELS 3 Yrotation Xrotation Zrotation
      JOINT Head
      {
       OFFSET 0.000000 8.901200 0.004600
       CHANNELS 3 Yrotation Xrotation Zrotation
       End Site
       {
        OFFSET 0.000000 16.962200 0.002400
       }
      }
     }
     JOINT RightCollar
     {
      OFFSET -2.920100 9.518800 0.000000
      CHANNELS 3 Yrotation Xrotation Zrotation
      JOINT RightShoulder
      {
       OFFSET -13.664500 0.000000 0.000000
       CHANNELS 3 Yrotation Xrotation Zrotation
       JOINT RightElbow
       {
        OFFSET 0.000000 -29.999200 0.000000
        CHANNELS 3 Yrotation Xrotation Zrotation
        JOINT RightWrist
        {
         OFFSET 0.000000 -24.253600 0.000000
         CHANNELS 3 Yrotation Xrotation Zrotation
         End Site
         {
          OFFSET 0.000000 -17.918900 0.000000
         }
        }
       }
      }
     }
     JOINT LeftCollar
     {
      OFFSET 2.920100 9.518800 0.000000
      CHANNELS 3 Yrotation Xrotation Zrotation
      JOINT LeftShoulder
      {
       OFFSET 13.664500 0.000000 0.000000
       CHANNELS 3 Yrotation Xrotation Zrotation
       JOINT LeftElbow
       {
        OFFSET 0.000000 -29.999200 0.000000
        CHANNELS 3 Yrotation Xrotation Zrotation
        JOINT LeftWrist
        {
         OFFSET 0.000000 -24.253600 0.000000
         CHANNELS 3 Yrotation Xrotation Zrotation
         End Site
         {
          OFFSET 0.000000 -17.918900 0.000000
         }
        }
       }
      }
     }
    }
   }
  }
 }
 JOINT RightHip
 {
  OFFSET -7.797300 0.005300 0.000500
  CHANNELS 3 Yrotation Xrotation Zrotation
  JOINT RightKnee
  {
   OFFSET 0.000000 -40.663400 -0.000500
   CHANNELS 3 Yrotation Xrotation Zrotation
   JOINT RightAnkle
   {
    OFFSET 0.000000 -39.523700 -0.000900
    CHANNELS 3 Yrotation Xrotation Zrotation
    JOINT RightToe
    {
     OFFSET 0.000000 -6.418000 14.485300
     CHANNELS 3 Yrotation Xrotation Zrotation
     End Site
     {
      OFFSET 0.000000 -1.465200 6.326400
     }
    }
   }
  }
 }
 JOINT LeftHip
 {
  OFFSET 7.797300 0.005300 0.000500
  CHANNELS 3 Yrotation Xrotation Zrotation
  JOINT LeftKnee
  {
   OFFSET 0.000000 -40.663400 -0.000500
   CHANNELS 3 Yrotation Xrotation Zrotation
   JOINT LeftAnkle
   {
    OFFSET 0.000000 -39.523700 -0.000900
    CHANNELS 3 Yrotation Xrotation Zrotation
    JOINT LeftToe
    {
     OFFSET 0.000000 -6.418000 14.485300
     CHANNELS 3 Yrotation Xrotation Zrotation
     End Site
     {
      OFFSET 0.000000 -1.465200 6.326400
     }
    }
   }
  }
 }
}
MOTION
Frames: 5
Frame Time: 0.008333
-21.735606 126.586271 71.687508 178.603398 -32.416658 -3.361925 0.651909 19.286970 0.778321 0.050961 2.296427 0.081122 0.101768 3.784303 0.133281 0.544970 16.683890 0.659184 3.429468 20.821249 0.836603 3.460027 -3.523418 0.123617 -7.350117 -0.319520 0.234010 -23.769053 -5.491883 0.307676 -102.763887 -26.933481 77.978923 -26.437357 -5.865926 -14.847818 -3.234238 -0.182667 3.313309 21.314170 -9.219999 0.781670 71.220704 -29.634835 -73.909926 17.711539 -11.816115 40.689727 -10.299231 -44.836059 1.597050 -147.148589 68.926806 -140.343829 6.628532 -25.149886 -4.988438 0.007178 -0.006364 0.003180 -18.997832 -49.703098 -1.232507 28.449956 63.447082 19.782638 -4.808833 38.157395 -3.509556 0.011987 0.031261 0.005314
-21.734119 126.583987 71.689243 178.614128 -32.400479 -3.369334 0.631801 19.271315 0.778348 0.051430 2.297716 0.077941 0.100172 3.783073 0.132326 0.540089 16.685911 0.655400 3.356405 20.863622 0.839348 3.422379 -3.490207 0.128388 -7.356497 -0.355016 0.215858 -23.758106 -5.472948 0.314841 -102.778483 -27.016248 77.984868 -26.459557 -5.774780 -14.772295 -3.283215 -0.207784 3.277364 21.256504 -9.221997 0.771138 71.231740 -29.684262 -73.928315 17.702963 -11.808838 40.643672 -10.376094 -44.856673 1.628025 -147.148774 68.927479 -140.387245 6.640982 -25.145348 -4.985041 -0.005855 -0.007003 -0.002594 -18.951597 -49.738338 -1.200004 28.273555 63.452592 19.653805 -4.893491 38.319339 -3.591642 0.027927 0.000238 0.012374
-21.733078 126.582567 71.689233 178.618903 -32.392249 -3.373273 0.618774 19.264389 0.775424 0.050245 2.299591 0.076047 0.098075 3.780729 0.131253 0.533397 16.682067 0.652380 3.341641 20.884972 0.839171 3.349401 -3.425360 0.142583 -7.345094 -0.363021 0.212504 -23.748985 -5.484873 0.327611 -102.778688 -27.090307 77.965470 -26.422334 -5.610359 -14.546613 -3.318866 -0.224721 3.251872 21.190203 -9.219719 0.754633 71.246756 -29.737293 -73.940897 17.698798 -11.780313 40.575311 -10.428430 -44.862453 1.654347 -147.105413 68.917671 -140.370078 6.661651 -25.151534 -4.987354 -0.007310 -0.005024 -0.003239 -18.951621 -49.754192 -1.170224 28.169097 63.466459 19.565411 -4.899770 38.382732 -3.616559 0.022040 -0.010499 0.009764
-21.732235 126.580858 71.689599 178.622424 -32.377178 -3.377488 0.598916 19.260253 0.767187 0.054239 2.293775 0.076730 0.095666 3.778363 0.130026 0.528866 16.675321 0.649126 3.329762 20.908133 0.838768 3.299733 -3.354636 0.142041 -7.335178 -0.371543 0.211624 -23.737781 -5.492019 0.338660 -102.776376 -27.149117 77.948891 -26.340349 -5.369671 -14.192280 -3.326876 -0.230990 3.241283 21.101809 -9.222515 0.725112 71.249968 -29.786946 -73.952697 17.693510 -11.748952 40.505492 -10.461782 -44.874928 1.673159 -147.047653 68.899588 -140.324926 6.701154 -25.157154 -4.997248 -0.002505 -0.003734 -0.001110 -18.981609 -49.777401 -1.122265 28.072038 63.488518 19.468847 -4.888391 38.429419 -3.634295 0.013926 -0.015720 0.006169
-21.732393 126.580102 71.688489 178.622178 -32.369503 -3.374765 0.581480 19.261954 0.756177 0.055350 2.291225 0.077382 0.092945 3.776207 0.128859 0.516883 16.668189 0.636981 3.274574 20.983623 0.822125 3.329570 -3.337237 0.123463 -7.322263 -0.399533 0.221541 -23.731588 -5.492059 0.344515 -102.757146 -27.192009 77.926896 -26.231516 -5.071706 -13.743984 -3.325030 -0.239001 3.235364 21.015010 -9.226282 0.697306 71.293249 -29.836426 -73.938652 17.687866 -11.657692 40.407738 -10.486230 -44.880667 1.686322 -147.027651 68.894072 -140.322357 6.710422 -25.165152 -4.998230 -0.002469 -0.003949 -0.001094 -19.009414 -49.794320 -1.084497 27.980998 63.512688 19.371272 -4.886939 38.477401 -3.650472 0.002254 -0.013108 0.000998
